<?xml version="1.0" encoding="UTF-8"?>
<svg width="752pt" height="752pt" version="1.1" viewBox="0 0 752 752" xmlns="http://www.w3.org/2000/svg">
 <path d="m380.01 215.88 189.43 88.398c3.3281 1.5586 5.4609 4.9023 5.4609 8.5859s-2.1328 7.0234-5.4609 8.582l-189.43 88.406c-1.2695 0.59375-2.6367 0.89062-4.0078 0.89062-1.3672 0-2.7383-0.29688-4.0078-0.89062l-189.43-88.406c-3.3281-1.5625-5.4609-4.9062-5.4609-8.5859 0-3.6797 2.1328-7.0234 5.4648-8.5859m197.45 168.71 189.43-88.398c4.7344-2.2148 6.793-7.8477 4.5742-12.594-2.2109-4.7344-7.8242-6.7969-12.586-4.5742l-185.43 86.531-185.43-86.527c-4.7344-2.2031-10.371-0.16016-12.586 4.5742-2.2109 4.7461-0.16406 10.375 4.5781 12.594l189.43 88.398c1.2695 0.59375 2.6367 0.89062 4.0078 0.89062 1.3672-0.003906 2.7305-0.30078 4-0.89453zm0 63.148 189.43-88.402c4.7344-2.2148 6.793-7.8477 4.5742-12.594-2.2109-4.7344-7.8242-6.8008-12.586-4.5742l-185.43 86.531-185.43-86.531c-4.7344-2.2031-10.371-0.16016-12.586 4.5742-2.2109 4.7461-0.16406 10.375 4.5781 12.594l189.43 88.402c1.2656 0.59375 2.6328 0.88672 4 0.88672 1.3711 0 2.7383-0.29297 4.0078-0.88672z"/>
</svg>
